<mxfile host="65bd71144e">
    <diagram id="VPsidG5UPo3SP2NgHH7p" name="Page-1">
        <mxGraphModel dx="34700" dy="41700" grid="0" gridSize="10" guides="1" tooltips="1" connect="1" arrows="1" fold="1" page="1" pageScale="1" pageWidth="1169" pageHeight="827" background="#ffffff" math="0" shadow="0">
            <root>
                <mxCell id="0"/>
                <mxCell id="1" parent="0"/>
                <mxCell id="37" value="" style="rounded=1;whiteSpace=wrap;html=1;fontFamily=Times New Roman;fontSize=15;fillColor=#B5C99A;strokeColor=#718355;fontStyle=0" vertex="1" parent="1">
                    <mxGeometry x="186" y="281" width="130" height="80" as="geometry"/>
                </mxCell>
                <mxCell id="36" value="" style="rounded=1;whiteSpace=wrap;html=1;fontFamily=Times New Roman;fontSize=15;fillColor=#B5C99A;strokeColor=#718355;fontStyle=0" vertex="1" parent="1">
                    <mxGeometry x="370" y="281" width="130" height="80" as="geometry"/>
                </mxCell>
                <mxCell id="22" value="" style="rounded=1;whiteSpace=wrap;html=1;fontFamily=Times New Roman;fontSize=15;fillColor=#B5C99A;strokeColor=#718355;fontStyle=0" vertex="1" parent="1">
                    <mxGeometry x="10" y="281" width="130" height="80" as="geometry"/>
                </mxCell>
                <mxCell id="20" value="" style="rounded=1;whiteSpace=wrap;html=1;fontFamily=Times New Roman;fontSize=15;fontColor=#333333;fillColor=#B5C99A;strokeColor=#718355;fontStyle=0" vertex="1" parent="1">
                    <mxGeometry x="10" y="150" width="650" height="80" as="geometry"/>
                </mxCell>
                <mxCell id="14" style="edgeStyle=none;html=1;exitX=1;exitY=0.5;exitDx=0;exitDy=0;entryX=0;entryY=0.5;entryDx=0;entryDy=0;fontFamily=Times New Roman;fontSize=15;fontColor=#000000;strokeColor=#000000;fontStyle=0" edge="1" parent="1" source="2" target="3">
                    <mxGeometry relative="1" as="geometry"/>
                </mxCell>
                <mxCell id="2" value="&lt;p style=&quot;font-size: 15px;&quot;&gt;&lt;font face=&quot;Times New Roman&quot; style=&quot;font-size: 15px;&quot; color=&quot;#000000&quot;&gt;Data collection&lt;/font&gt;&lt;/p&gt;" style="rounded=1;whiteSpace=wrap;html=1;fillColor=#97A97C;strokeColor=#718355;fontSize=15;fontStyle=0" vertex="1" parent="1">
                    <mxGeometry x="20" y="160" width="110" height="60" as="geometry"/>
                </mxCell>
                <mxCell id="15" style="edgeStyle=none;html=1;exitX=1;exitY=0.5;exitDx=0;exitDy=0;entryX=0;entryY=0.5;entryDx=0;entryDy=0;fontFamily=Times New Roman;fontSize=15;fontColor=#000000;strokeColor=#000000;fontStyle=0" edge="1" parent="1" source="3" target="4">
                    <mxGeometry relative="1" as="geometry"/>
                </mxCell>
                <mxCell id="3" value="&lt;p style=&quot;font-size: 15px;&quot;&gt;&lt;font face=&quot;Times New Roman&quot; style=&quot;font-size: 15px;&quot; color=&quot;#000000&quot;&gt;Data discovery and profiling&lt;/font&gt;&lt;/p&gt;" style="rounded=1;whiteSpace=wrap;html=1;fillColor=#97A97C;strokeColor=#718355;fontSize=15;fontStyle=0" vertex="1" parent="1">
                    <mxGeometry x="150" y="160" width="110" height="60" as="geometry"/>
                </mxCell>
                <mxCell id="16" style="edgeStyle=none;html=1;exitX=1;exitY=0.5;exitDx=0;exitDy=0;entryX=0;entryY=0.5;entryDx=0;entryDy=0;fontFamily=Times New Roman;fontSize=15;fontColor=#000000;strokeColor=#000000;fontStyle=0" edge="1" parent="1" source="4" target="5">
                    <mxGeometry relative="1" as="geometry"/>
                </mxCell>
                <mxCell id="4" value="&lt;p style=&quot;font-size: 15px;&quot;&gt;&lt;font face=&quot;Times New Roman&quot; style=&quot;font-size: 15px;&quot; color=&quot;#000000&quot;&gt;Data cleansing&lt;/font&gt;&lt;/p&gt;" style="rounded=1;whiteSpace=wrap;html=1;fillColor=#97A97C;strokeColor=#718355;fontSize=15;fontStyle=0" vertex="1" parent="1">
                    <mxGeometry x="280" y="160" width="110" height="60" as="geometry"/>
                </mxCell>
                <mxCell id="17" style="edgeStyle=none;html=1;exitX=1;exitY=0.5;exitDx=0;exitDy=0;fontFamily=Times New Roman;fontSize=15;fontColor=#000000;strokeColor=#000000;fontStyle=0" edge="1" parent="1" source="5" target="6">
                    <mxGeometry relative="1" as="geometry"/>
                </mxCell>
                <mxCell id="5" value="&lt;p style=&quot;font-size: 15px;&quot;&gt;&lt;font face=&quot;Times New Roman&quot; style=&quot;font-size: 15px;&quot; color=&quot;#000000&quot;&gt;Data structuring&lt;/font&gt;&lt;/p&gt;" style="rounded=1;whiteSpace=wrap;html=1;fillColor=#97A97C;strokeColor=#718355;fontSize=15;fontStyle=0" vertex="1" parent="1">
                    <mxGeometry x="410" y="160" width="110" height="60" as="geometry"/>
                </mxCell>
                <mxCell id="6" value="&lt;p style=&quot;font-size: 15px;&quot;&gt;&lt;font face=&quot;Times New Roman&quot; style=&quot;font-size: 15px;&quot; color=&quot;#000000&quot;&gt;Data transformation and enrichment&lt;/font&gt;&lt;/p&gt;" style="rounded=1;whiteSpace=wrap;html=1;fillColor=#97A97C;strokeColor=#718355;fontSize=15;fontStyle=0" vertex="1" parent="1">
                    <mxGeometry x="540" y="160" width="110" height="60" as="geometry"/>
                </mxCell>
                <mxCell id="12" value="&lt;p style=&quot;font-size: 15px;&quot;&gt;&lt;font face=&quot;Times New Roman&quot; style=&quot;font-size: 15px;&quot; color=&quot;#000000&quot;&gt;Baseline model training&lt;/font&gt;&lt;/p&gt;" style="rounded=1;whiteSpace=wrap;html=1;fillColor=#97A97C;strokeColor=#718355;fontSize=15;fontStyle=0" vertex="1" parent="1">
                    <mxGeometry x="20" y="291" width="110" height="60" as="geometry"/>
                </mxCell>
                <mxCell id="13" value="&lt;p style=&quot;font-size: 15px;&quot;&gt;&lt;font face=&quot;Times New Roman&quot; style=&quot;font-size: 15px;&quot; color=&quot;#000000&quot;&gt;&amp;nbsp;Model evaluation&lt;/font&gt;&lt;/p&gt;" style="rounded=1;whiteSpace=wrap;html=1;fillColor=#97A97C;strokeColor=#718355;fontSize=15;fontStyle=0" vertex="1" parent="1">
                    <mxGeometry x="196" y="291" width="110" height="60" as="geometry"/>
                </mxCell>
                <mxCell id="25" value="&lt;p style=&quot;font-size: 15px;&quot;&gt;&lt;font face=&quot;Times New Roman&quot; style=&quot;font-size: 15px;&quot; color=&quot;#000000&quot;&gt;Final result&lt;/font&gt;&lt;/p&gt;" style="rounded=1;whiteSpace=wrap;html=1;fillColor=#97A97C;strokeColor=#718355;fontSize=15;fontStyle=0" vertex="1" parent="1">
                    <mxGeometry x="380" y="291" width="110" height="60" as="geometry"/>
                </mxCell>
                <mxCell id="28" value="" style="endArrow=classic;html=1;fontFamily=Times New Roman;fontSize=15;fontColor=#000000;strokeColor=#718355;strokeWidth=3;fontStyle=0" edge="1" parent="1">
                    <mxGeometry width="50" height="50" relative="1" as="geometry">
                        <mxPoint x="323" y="320.44" as="sourcePoint"/>
                        <mxPoint x="363" y="320.44" as="targetPoint"/>
                    </mxGeometry>
                </mxCell>
                <mxCell id="29" value="" style="verticalLabelPosition=bottom;verticalAlign=top;html=1;shape=mxgraph.basic.tick;rounded=0;fontFamily=Times New Roman;fontSize=15;fontColor=#000000;strokeColor=#000000;fillColor=#FE6D73;" vertex="1" parent="1">
                    <mxGeometry x="70" y="110" width="25.5" height="30" as="geometry"/>
                </mxCell>
                <mxCell id="31" value="" style="verticalLabelPosition=bottom;verticalAlign=top;html=1;shape=mxgraph.basic.tick;rounded=0;fontFamily=Times New Roman;fontSize=15;fontColor=#000000;strokeColor=#000000;fillColor=#FE6D73;" vertex="1" parent="1">
                    <mxGeometry x="197" y="110" width="25.5" height="30" as="geometry"/>
                </mxCell>
                <mxCell id="33" value="" style="verticalLabelPosition=bottom;verticalAlign=top;html=1;shape=mxgraph.basic.tick;rounded=0;fontFamily=Times New Roman;fontSize=15;fontColor=#000000;strokeColor=#000000;fillColor=#FE6D73;" vertex="1" parent="1">
                    <mxGeometry x="323" y="110" width="25.5" height="30" as="geometry"/>
                </mxCell>
                <mxCell id="34" value="" style="verticalLabelPosition=bottom;verticalAlign=top;html=1;shape=mxgraph.basic.tick;rounded=0;fontFamily=Times New Roman;fontSize=15;fontColor=#000000;strokeColor=#000000;fillColor=#FE6D73;" vertex="1" parent="1">
                    <mxGeometry x="450" y="110" width="25.5" height="30" as="geometry"/>
                </mxCell>
                <mxCell id="38" value="" style="endArrow=classic;html=1;fontFamily=Times New Roman;fontSize=15;fontColor=#000000;strokeColor=#718355;strokeWidth=3;fontStyle=0" edge="1" parent="1">
                    <mxGeometry width="50" height="50" relative="1" as="geometry">
                        <mxPoint x="143" y="320.44" as="sourcePoint"/>
                        <mxPoint x="183" y="320.44" as="targetPoint"/>
                    </mxGeometry>
                </mxCell>
                <mxCell id="40" value="" style="endArrow=none;html=1;fontFamily=Times New Roman;fontSize=15;fontColor=#000000;strokeColor=#718355;strokeWidth=3;exitX=1;exitY=0.5;exitDx=0;exitDy=0;" edge="1" parent="1" source="20">
                    <mxGeometry width="50" height="50" relative="1" as="geometry">
                        <mxPoint x="650" y="310" as="sourcePoint"/>
                        <mxPoint x="680" y="190" as="targetPoint"/>
                    </mxGeometry>
                </mxCell>
                <mxCell id="41" value="" style="edgeStyle=elbowEdgeStyle;elbow=horizontal;endArrow=none;html=1;fontFamily=Times New Roman;fontSize=15;fontColor=#000000;strokeColor=#718355;strokeWidth=3;endFill=0;" edge="1" parent="1">
                    <mxGeometry width="50" height="50" relative="1" as="geometry">
                        <mxPoint x="678.5" y="190" as="sourcePoint"/>
                        <mxPoint x="250" y="250" as="targetPoint"/>
                        <Array as="points">
                            <mxPoint x="688.5" y="230"/>
                        </Array>
                    </mxGeometry>
                </mxCell>
                <mxCell id="42" value="" style="edgeStyle=elbowEdgeStyle;elbow=horizontal;endArrow=classic;html=1;fontFamily=Times New Roman;fontSize=15;fontColor=#000000;strokeColor=#718355;strokeWidth=3;entryX=0.5;entryY=0;entryDx=0;entryDy=0;" edge="1" parent="1" target="22">
                    <mxGeometry width="50" height="50" relative="1" as="geometry">
                        <mxPoint x="250" y="250" as="sourcePoint"/>
                        <mxPoint x="100" y="270" as="targetPoint"/>
                        <Array as="points">
                            <mxPoint x="75" y="250"/>
                        </Array>
                    </mxGeometry>
                </mxCell>
            </root>
        </mxGraphModel>
    </diagram>
</mxfile>